<mxfile host="app.diagrams.net" modified="2023-06-23T08:00:01.574Z" agent="Mozilla/5.0 (Windows NT 10.0; Win64; x64; rv:109.0) Gecko/20100101 Firefox/110.0" version="21.4.0" etag="BMCcunE5-3nW4DOfCROx" type="github">
  <diagram name="Page-1" id="ZiSMmT9Jl1IjzY89JFM-">
    <mxGraphModel>
      <root>
        <mxCell id="0" />
        <mxCell id="1" parent="0" />
      </root>
    </mxGraphModel>
  </diagram>
</mxfile>
